# xmcd
#
# Track frame offsets: 
#        150
#        18511
#        32056
#        50664
#        70342
#        86131
#        101226
#        117320
#        133979
#        150955
#
# Disc length: 2219 seconds
#
# Revision: 2
# Processed by: cddbd v1.5.2PL0 Copyright (c) Steve Scherf et al.
# Submitted via: ExactAudioCopy v1.3
#
DISCID=8a08a90a
DTITLE=Steve Wariner - I Should Be With You
DYEAR=1988
DGENRE=Country/rock
TTITLE0=Runnin'
TTITLE1=More Than Enough
TTITLE2=Hold On (A Little Longer)
TTITLE3=Caught Between Your Duty And Your Dream
TTITLE4=I Should Be With You
TTITLE5=All That Matters
TTITLE6=Party Of One
TTITLE7=Baby I'm Yours
TTITLE8=Somewhere Between Old And New York
TTITLE9=Lights Out
EXTD=
EXTT0=
EXTT1=
EXTT2=
EXTT3=
EXTT4=
EXTT5=
EXTT6=
EXTT7=
EXTT8=
EXTT9=
PLAYORDER=
